UNKNOWN
version=1
nRows=27
nColumns=19
inDegrees=no
endheader
time	rF_x	rF_y	rF_z	rCOP_x	rCOP_y	rCOP_z	lF_x	lF_y	lF_z	lCOP_x	lCOP_y	lCOP_z	rT_x	rT_y	rT_z	lT_x	lT_y	lT_z
      5.57500000	      0.00000000	      0.00000000	      0.00000000	      1.29770700	      0.01150000	     -0.46613300	      0.00000000	      0.00000000	      0.00000000	      0.74472800	      0.01150000	     -0.55452700	      0.00000000	      0.00000000	      0.00000000	      0.00000000	      0.00000000	      0.00000000
      5.57550000	      0.00000000	      0.00000000	      0.00000000	      1.29741300	      0.01150000	     -0.46619300	      0.00000000	      0.00000000	      0.00000000	      0.74417800	      0.01150000	     -0.55430200	      0.00000000	      0.00000000	      0.00000000	      0.00000000	      0.00000000	      0.00000000
      5.57600000	      0.00000000	      0.00000000	      0.00000000	      1.29712000	      0.01150000	     -0.46625300	      0.00000000	      0.00000000	      0.00000000	      0.74362800	      0.01150000	     -0.55407800	      0.00000000	      0.00000000	      0.00000000	      0.00000000	      0.00000000	      0.00000000
      5.57650000	      0.00000000	      0.00000000	      0.00000000	      1.29682600	      0.01150000	     -0.46631300	      0.00000000	      0.00000000	      0.00000000	      0.74307800	      0.01150000	     -0.55385300	      0.00000000	      0.00000000	      0.00000000	      0.00000000	      0.00000000	      0.00000000
      5.57700000	      0.00000000	      0.00000000	      0.00000000	      1.29653300	      0.01150000	     -0.46637200	      0.00000000	      0.00000000	      0.00000000	      0.74252700	      0.01150000	     -0.55362900	      0.00000000	      0.00000000	      0.00000000	      0.00000000	      0.00000000	      0.00000000
      5.57750000	      0.00000000	      0.00000000	      0.00000000	      1.29623900	      0.01150000	     -0.46643200	      0.00000000	      0.00000000	      0.00000000	      0.74197700	      0.01150000	     -0.55340400	      0.00000000	      0.00000000	      0.00000000	      0.00000000	      0.00000000	      0.00000000
      5.57800000	      0.00000000	      0.00000000	      0.00000000	      1.29594600	      0.01150000	     -0.46649200	      0.00000000	      0.00000000	      0.00000000	      0.74142700	      0.01150000	     -0.55318000	      0.00000000	      0.00000000	      0.00000000	      0.00000000	      0.00000000	      0.00000000
      5.57850000	      0.00000000	      0.00000000	      0.00000000	      1.29565200	      0.01150000	     -0.46655100	      0.00000000	      0.00000000	      0.00000000	      0.74087600	      0.01150000	     -0.55295500	      0.00000000	      0.00000000	      0.00000000	      0.00000000	      0.00000000	      0.00000000
      5.57900000	      0.00000000	      0.00000000	      0.00000000	      1.29535800	      0.01150000	     -0.46661100	      0.00000000	      0.00000000	      0.00000000	      0.74032600	      0.01150000	     -0.55273100	      0.00000000	      0.00000000	      0.00000000	      0.00000000	      0.00000000	      0.00000000
      5.57950000	      0.00000000	      0.00000000	      0.00000000	      1.29506500	      0.01150000	     -0.46667100	      0.00000000	      0.00000000	      0.00000000	      0.73977600	      0.01150000	     -0.55250700	      0.00000000	      0.00000000	      0.00000000	      0.00000000	      0.00000000	      0.00000000
      5.58000000	      0.00000000	      0.00000000	      0.00000000	      1.29477100	      0.01150000	     -0.46673000	      0.00000000	      0.00000000	      0.00000000	      0.73922500	      0.01150000	     -0.55228200	      0.00000000	      0.00000000	      0.00000000	      0.00000000	      0.00000000	      0.00000000
      5.58050000	      0.00000000	      0.00000000	      0.00000000	      1.29420600	      0.01150000	     -0.46681300	      0.00000000	      0.00000000	      0.00000000	      0.73881700	      0.01150000	     -0.55207500	      0.00000000	      0.00000000	      0.00000000	      0.00000000	      0.00000000	      0.00000000
      5.58100000	      0.00000000	      0.00000000	      0.00000000	      1.29364000	      0.01150000	     -0.46689600	      0.00000000	      0.00000000	      0.00000000	      0.73840900	      0.01150000	     -0.55186900	      0.00000000	      0.00000000	      0.00000000	      0.00000000	      0.00000000	      0.00000000
      5.58150000	      0.00000000	      0.00000000	      0.00000000	      1.29307500	      0.01150000	     -0.46697900	      0.00000000	      0.00000000	      0.00000000	      0.73800100	      0.01150000	     -0.55166200	      0.00000000	      0.00000000	      0.00000000	      0.00000000	      0.00000000	      0.00000000
      5.58200000	      0.00000000	      0.00000000	      0.00000000	      1.29250900	      0.01150000	     -0.46706200	      0.00000000	      0.00000000	      0.00000000	      0.73759300	      0.01150000	     -0.55145500	      0.00000000	      0.00000000	      0.00000000	      0.00000000	      0.00000000	      0.00000000
      5.58250000	      0.00000000	      0.00000000	      0.00000000	      1.29194400	      0.01150000	     -0.46714500	      0.00000000	      0.00000000	      0.00000000	      0.73718500	      0.01150000	     -0.55124800	      0.00000000	      0.00000000	      0.00000000	      0.00000000	      0.00000000	      0.00000000
      5.58300000	      0.00000000	      0.00000000	      0.00000000	      1.29137900	      0.01150000	     -0.46722800	      0.00000000	      0.00000000	      0.00000000	      0.73677700	      0.01150000	     -0.55104200	      0.00000000	      0.00000000	      0.00000000	      0.00000000	      0.00000000	      0.00000000
      5.58350000	      0.00000000	      0.00000000	      0.00000000	      1.29081300	      0.01150000	     -0.46731100	      0.00000000	      0.00000000	      0.00000000	      0.73636900	      0.01150000	     -0.55083500	      0.00000000	      0.00000000	      0.00000000	      0.00000000	      0.00000000	      0.00000000
      5.58400000	      0.00000000	      0.00000000	      0.00000000	      1.29024800	      0.01150000	     -0.46739300	      0.00000000	      0.00000000	      0.00000000	      0.73596000	      0.01150000	     -0.55062800	      0.00000000	      0.00000000	      0.00000000	      0.00000000	      0.00000000	      0.00000000
      5.58450000	      0.00000000	      0.00000000	      0.00000000	      1.28968200	      0.01150000	     -0.46747600	      0.00000000	      0.00000000	      0.00000000	      0.73555200	      0.01150000	     -0.55042200	      0.00000000	      0.00000000	      0.00000000	      0.00000000	      0.00000000	      0.00000000
      5.58500000	      0.00000000	      0.00000000	      0.00000000	      1.28911700	      0.01150000	     -0.46755900	      0.00000000	      0.00000000	      0.00000000	      0.73514400	      0.01150000	     -0.55021500	      0.00000000	      0.00000000	      0.00000000	      0.00000000	      0.00000000	      0.00000000
      5.58550000	      0.00000000	      0.00000000	      0.00000000	      1.28855100	      0.01150000	     -0.46764200	      0.00000000	      0.00000000	      0.00000000	      0.73473600	      0.01150000	     -0.55000800	      0.00000000	      0.00000000	      0.00000000	      0.00000000	      0.00000000	      0.00000000
      5.58600000	      0.00000000	      0.00000000	      0.00000000	      1.28798600	      0.01150000	     -0.46772500	      0.00000000	      0.00000000	      0.00000000	      0.73432800	      0.01150000	     -0.54980200	      0.00000000	      0.00000000	      0.00000000	      0.00000000	      0.00000000	      0.00000000
      5.58650000	      0.00000000	      0.00000000	      0.00000000	      1.28742000	      0.01150000	     -0.46780800	      0.00000000	      0.00000000	      0.00000000	      0.73392000	      0.01150000	     -0.54959500	      0.00000000	      0.00000000	      0.00000000	      0.00000000	      0.00000000	      0.00000000
      5.58700000	      0.00000000	      0.00000000	      0.00000000	      1.28685500	      0.01150000	     -0.46789100	      0.00000000	      0.00000000	      0.00000000	      0.73351200	      0.01150000	     -0.54938800	      0.00000000	      0.00000000	      0.00000000	      0.00000000	      0.00000000	      0.00000000
      5.58750000	      0.00000000	      0.00000000	      0.00000000	      1.28628900	      0.01150000	     -0.46797400	      0.00000000	      0.00000000	      0.00000000	      0.73310400	      0.01150000	     -0.54918100	      0.00000000	      0.00000000	      0.00000000	      0.00000000	      0.00000000	      0.00000000
      5.58800000	      0.00000000	      0.00000000	      0.00000000	      1.28572400	      0.01150000	     -0.46805700	      0.00000000	      0.00000000	      0.00000000	      0.73269500	      0.01150000	     -0.54897500	      0.00000000	      0.00000000	      0.00000000	      0.00000000	      0.00000000	      0.00000000
